<?xml version="1.0" standalone="no"?>
<!DOCTYPE svg PUBLIC "-//W3C//DTD SVG 20010904//EN"
 "http://www.w3.org/TR/2001/REC-SVG-20010904/DTD/svg10.dtd">
<svg version="1.0" xmlns="http://www.w3.org/2000/svg"
 width="700.000000pt" height="700.000000pt" viewBox="0 0 700.000000 700.000000"
 preserveAspectRatio="xMidYMid meet">
<metadata>
Created by potrace 1.11, written by Peter Selinger 2001-2013
</metadata>
<g transform="translate(0.000000,700.000000) scale(0.100000,-0.100000)"
fill="#000000" stroke="none">
<path d="M3508 6696 c-1 -2 -34 -6 -73 -10 -81 -7 -161 -15 -190 -21 -11 -2
-42 -7 -68 -11 -66 -9 -73 -26 -48 -118 11 -40 22 -84 25 -99 11 -61 32 -70
123 -49 23 5 106 10 183 10 l141 1 -7 -97 c-8 -110 -9 -220 -3 -306 l4 -60
-115 -2 c-166 -3 -281 -12 -355 -29 -11 -2 -42 -7 -70 -11 -130 -17 -404 -107
-583 -190 -51 -24 -98 -41 -105 -38 -13 6 -141 157 -185 219 -15 22 -49 74
-74 116 l-45 75 41 22 c22 12 81 37 130 57 49 19 96 41 103 47 14 11 40 65 50
103 9 38 11 140 1 158 -20 39 -153 13 -293 -58 -81 -42 -298 -172 -335 -201
-130 -103 -194 -156 -235 -195 -27 -26 -68 -65 -91 -86 -70 -65 -105 -110 -98
-127 3 -8 38 -41 77 -73 40 -31 78 -63 85 -70 24 -24 46 -13 117 55 71 68 207
175 235 184 11 4 29 -15 60 -66 55 -90 141 -206 193 -263 22 -24 38 -45 36
-46 -312 -212 -590 -512 -742 -799 -19 -37 -38 -73 -41 -80 -3 -9 -12 -4 -28
14 -15 18 -69 46 -158 82 -74 30 -169 70 -211 88 l-76 34 16 24 c8 14 37 51
64 82 43 51 48 61 43 93 -4 20 -12 47 -19 60 -14 27 -78 97 -130 142 -33 29
-40 31 -58 20 -11 -6 -33 -32 -48 -57 -16 -25 -56 -73 -89 -108 -63 -65 -142
-175 -168 -232 -88 -192 -99 -227 -109 -350 -4 -36 -10 -81 -15 -100 -23 -92
-29 -315 -9 -335 5 -5 22 -10 37 -11 15 -1 86 -4 159 -8 75 -4 134 -3 137 2 3
5 8 29 10 53 3 24 16 81 30 127 14 46 26 107 26 135 0 29 0 64 1 80 0 15 3 27
6 27 4 0 56 -24 117 -54 141 -69 229 -103 286 -111 25 -3 54 -8 65 -10 11 -2
26 -4 34 -4 9 -1 11 -7 6 -18 -4 -10 -23 -63 -42 -118 -86 -250 -124 -497
-118 -765 4 -172 7 -208 25 -303 6 -26 10 -55 10 -63 0 -14 -126 -78 -265
-134 -86 -35 -253 -81 -259 -72 -8 15 -15 64 -32 217 -3 33 -12 70 -20 82 -32
51 -171 119 -225 111 -47 -7 -61 -117 -34 -269 19 -109 86 -346 130 -461 42
-108 162 -350 207 -417 39 -57 49 -57 121 -4 29 21 69 49 89 63 42 28 52 50
33 77 -43 62 -129 255 -148 333 -5 20 -2 26 11 27 62 5 371 122 434 165 l26
18 7 -29 c28 -130 166 -404 300 -596 70 -101 254 -316 333 -388 36 -34 38 -40
20 -59 -7 -7 -39 -45 -72 -83 -32 -39 -98 -113 -146 -165 -131 -141 -160 -174
-160 -182 -1 -37 -121 58 -217 171 -65 77 -66 78 -97 67 -41 -14 -96 -54 -96
-69 0 -25 62 -129 126 -212 125 -164 235 -254 484 -397 183 -106 353 -180 371
-161 8 9 101 275 96 278 -1 1 -40 17 -87 35 -47 18 -138 59 -203 92 -65 33
-126 61 -135 62 -9 2 -17 7 -19 12 -3 8 129 199 185 269 4 6 32 49 62 96 l54
85 86 -61 c104 -73 204 -126 308 -164 42 -16 111 -44 152 -63 113 -53 221 -93
315 -118 17 -5 55 -15 87 -24 31 -8 69 -18 85 -21 73 -15 142 -26 188 -32 28
-3 53 -8 57 -12 16 -16 50 -275 52 -405 l2 -138 -72 6 c-40 4 -104 13 -143 21
-62 13 -75 13 -106 1 -67 -28 -173 -164 -158 -203 13 -33 142 -78 256 -89 65
-6 407 -5 457 1 70 9 193 27 215 31 11 2 34 7 50 10 145 26 263 62 267 82 4
22 -69 224 -85 234 -7 5 -21 6 -32 3 -93 -26 -207 -43 -325 -50 l-65 -4 -1
112 c-1 111 -11 264 -19 277 -2 3 -6 18 -9 33 -3 15 -8 36 -11 47 -5 16 -2 20
17 21 248 8 494 58 736 148 100 37 325 148 388 192 25 17 49 27 53 23 5 -5 42
-63 83 -129 41 -66 103 -164 137 -217 33 -53 61 -101 61 -107 0 -16 -125 -86
-215 -119 -42 -16 -54 -26 -73 -64 -33 -66 -33 -133 1 -191 16 -26 39 -54 52
-63 64 -42 298 64 490 220 83 67 227 219 290 306 33 45 90 118 128 163 37 44
64 84 60 87 -21 17 -224 160 -228 160 -5 0 -63 -62 -105 -113 -14 -16 -50 -56
-80 -89 l-55 -58 -32 21 c-24 15 -47 50 -89 137 -32 64 -65 128 -75 142 -9 14
-20 49 -23 79 -3 30 -9 58 -14 63 -4 4 51 68 123 140 131 132 238 262 321 390
48 74 139 238 149 269 6 17 13 19 48 14 66 -9 227 -44 277 -59 58 -18 181 -64
186 -69 7 -7 -24 -72 -77 -164 -39 -67 -51 -97 -50 -126 2 -76 89 -217 134
-217 30 0 107 87 150 167 64 122 150 361 188 520 46 195 80 463 61 486 -13 16
-222 23 -250 8 -13 -7 -19 -22 -20 -51 -3 -78 -56 -318 -76 -345 -10 -13 -26
-10 -121 24 -60 21 -159 49 -220 61 -60 12 -111 23 -113 25 -2 1 7 31 19 66
54 159 59 318 16 479 -33 125 -64 161 -151 176 l-41 7 55 14 c68 17 120 65
142 131 17 49 17 71 3 162 -17 108 -18 105 45 102 33 -1 81 6 121 18 79 24
343 90 359 90 8 0 10 -34 9 -106 -3 -117 1 -125 77 -159 59 -26 227 -45 238
-27 6 10 13 134 18 327 3 89 -8 173 -37 287 -29 115 -51 168 -93 230 -16 24
-44 71 -61 106 -60 119 -155 254 -187 266 -18 7 -283 -171 -280 -188 1 -6 11
-27 22 -46 12 -19 36 -73 54 -120 19 -47 46 -100 62 -118 15 -18 28 -39 28
-47 0 -8 10 -21 22 -29 l21 -15 -24 -9 c-13 -5 -46 -12 -74 -16 -27 -4 -86
-17 -130 -28 -44 -11 -91 -22 -104 -24 -35 -7 -88 -30 -121 -54 -15 -11 -32
-20 -37 -20 -10 0 -39 109 -49 183 -13 87 -78 228 -182 392 -41 65 -139 204
-152 215 -3 3 -16 19 -28 35 -13 17 -59 67 -104 113 l-80 82 57 98 c63 105
140 212 204 280 34 37 43 42 54 30 27 -27 113 -125 145 -165 35 -44 73 -58
147 -55 57 3 139 28 157 49 55 62 -136 284 -430 501 -178 131 -500 304 -530
285 -17 -10 -91 -196 -92 -229 0 -15 13 -26 54 -43 53 -21 240 -140 283 -178
l22 -19 -33 -35 c-55 -59 -163 -206 -201 -274 -20 -36 -39 -65 -41 -65 -2 0
-32 20 -66 45 -187 138 -437 265 -675 343 -89 30 -304 82 -336 82 -9 0 -19 5
-23 11 -18 30 -11 486 9 505 2 2 41 -5 124 -22 12 -2 48 -12 81 -22 32 -11 69
-17 82 -15 75 11 200 132 200 194 0 15 -77 61 -138 81 -55 18 -179 41 -292 53
-60 7 -416 16 -422 11z m-1371 -2832 c24 -14 56 -28 71 -30 108 -19 193 -183
188 -359 -3 -83 -18 -128 -60 -173 -72 -80 -214 -85 -313 -12 -92 68 -137 175
-138 325 0 90 3 105 27 153 61 118 134 150 225 96z m1798 -1180 l40 -7 -53
-16 -53 -16 148 -1 c232 -2 371 -46 443 -141 32 -42 35 -53 35 -112 0 -85 -27
-142 -105 -219 -138 -137 -349 -216 -575 -215 -207 0 -375 88 -452 235 -24 46
-28 64 -28 138 0 73 4 92 27 136 88 167 332 259 573 218z"/>
</g>
</svg>
